<svg xmlns="http://www.w3.org/2000/svg" width="20" height="20" fill="none"><defs><clipPath id="a"><rect width="20" height="20" rx="0"/></clipPath></defs><g clip-path="url(#a)"><path fill="#F53F3F" d="M5.834 5V2.5c0-.46.373-.833.833-.833h6.667c.46 0 .833.373.833.833V5h4.167v1.667h-1.667V17.5c0 .46-.373.833-.833.833H4.167a.833.833 0 0 1-.833-.833V6.667H1.667V5zm5.345 6.667 1.473-1.474-1.178-1.178L10 10.488 8.527 9.015l-1.178 1.178 1.473 1.474-1.473 1.473 1.178 1.178L10 12.845l1.474 1.473 1.178-1.178zM7.5 3.333V5h5V3.333z"/></g></svg>