<svg xmlns="http://www.w3.org/2000/svg" width="20" height="20" fill="none"><defs><clipPath id="a"><rect width="20" height="20" rx="0"/></clipPath></defs><g fill="#86909C" clip-path="url(#a)"><path fill-rule="evenodd" d="M18 10q0 .196-.01.393-.01.196-.028.391-.02.196-.049.39-.028.194-.067.387-.038.192-.086.383-.048.19-.105.378t-.123.373-.141.367q-.075.18-.16.358-.083.178-.176.351t-.193.342-.21.332-.226.32-.242.31-.256.298-.271.284-.284.27q-.146.133-.298.257-.152.125-.31.242-.157.117-.32.226-.164.109-.332.21-.169.1-.342.193t-.35.177q-.178.084-.36.159-.181.075-.366.141-.185.067-.373.123-.188.057-.378.105t-.383.086-.387.067-.39.049-.391.028Q10.196 18 10 18t-.393-.01-.391-.028q-.196-.02-.39-.049-.194-.028-.387-.067-.192-.038-.383-.086-.19-.048-.378-.105t-.373-.123-.366-.141-.36-.16q-.177-.083-.35-.176t-.342-.193-.332-.21-.32-.226-.31-.242-.297-.256q-.146-.132-.285-.271t-.27-.284-.257-.298-.242-.31-.226-.32-.21-.332-.193-.342-.177-.35-.159-.36q-.075-.181-.141-.366-.067-.185-.124-.373t-.104-.378-.086-.383-.067-.387q-.03-.194-.048-.39-.02-.195-.03-.391Q2 10.196 2 10t.01-.393.029-.391q.019-.196.048-.39.028-.194.067-.387.038-.192.086-.383.047-.19.104-.378t.124-.373.141-.366.16-.36.176-.35q.092-.173.193-.342.101-.168.21-.332.11-.163.226-.32.117-.158.242-.31t.256-.297.271-.285.285-.27.297-.257.31-.242.32-.226.332-.21q.169-.1.342-.193t.35-.177.36-.159q.181-.075.366-.141.185-.067.373-.124t.378-.104.383-.086.387-.067q.194-.03.39-.048.195-.02.391-.03Q9.804 2 10 2t.393.01.391.029q.196.019.39.048.194.028.387.067.192.038.383.086.19.047.378.104t.373.124.367.141q.18.075.358.16.178.083.351.176t.342.193q.168.101.332.21.163.11.32.226.158.117.31.242t.298.256.284.271.27.285.257.297.242.31.226.32.21.332.193.342.177.35.159.36q.075.181.141.366.067.185.123.373.057.188.105.378t.086.383.067.387.049.39q.019.195.028.391.01.197.01.393m-1 0q0-2.9-2.05-4.95T10 3 5.05 5.05 3 10t2.05 4.95T10 17t4.95-2.05T17 10"/><path d="m8.5 12 1 1 2-2 1-1-1-1-2-2-1 1 2 2z"/></g></svg>