<svg xmlns="http://www.w3.org/2000/svg" width="24.001" height="13.301" fill="none"><path fill="#86909C" d="M14.501 5.7q0 .123-.012.245t-.036.243-.06.238-.082.23-.105.223-.126.21-.146.197-.165.182-.182.165-.197.146-.21.126-.222.105-.231.083-.238.06-.243.035q-.122.012-.245.012t-.245-.012-.243-.036-.238-.06-.23-.082-.223-.105-.21-.126-.197-.146-.182-.165-.165-.182-.146-.197-.126-.21-.105-.222-.082-.231-.06-.238-.036-.243-.012-.245.012-.245.036-.243.06-.238.082-.23.105-.222.126-.21q.069-.103.146-.198.078-.095.165-.182.087-.086.182-.164t.197-.146q.102-.069.21-.127.109-.058.222-.105.114-.047.231-.082t.238-.06.243-.036T12 3.2t.245.012.243.036.238.06.23.082.222.105q.109.058.21.127.103.068.198.146t.182.164.165.182.146.197.126.21.105.222.082.231.06.238.036.243.012.245m1.8 7.601c.7 0 1.1-.7.8-1.3-.8-1.8-2.8-3-5.2-3s-4.3 1.3-5.2 3c-.1.6.3 1.3 1 1.3zM21.4 6.2q0 .113-.01.226-.011.112-.033.223-.022.11-.055.219-.033.108-.076.213-.044.104-.097.204t-.116.193-.134.181-.152.168-.167.151-.181.135-.194.116-.204.096q-.104.044-.213.076-.108.033-.219.055-.11.022-.223.033-.112.011-.225.011t-.226-.01-.223-.034q-.11-.022-.219-.055-.108-.032-.212-.076-.105-.043-.204-.096-.1-.053-.194-.116t-.181-.135-.168-.151-.151-.168-.135-.18-.116-.194-.096-.204-.076-.213-.055-.219q-.022-.11-.033-.223T16.8 6.2t.01-.225q.012-.112.034-.223t.055-.22.076-.212.096-.204.116-.193q.063-.094.135-.182.072-.087.151-.167.08-.08.168-.152.087-.071.181-.134t.194-.116.204-.097.212-.076.22-.054q.11-.022.222-.034.113-.01.226-.01t.225.01.223.034q.111.022.22.054.108.033.212.076.104.044.204.097t.194.116.18.134q.088.072.168.152t.152.167q.071.088.134.182t.116.193.097.204q.043.105.076.213t.055.219q.022.11.033.223.01.112.01.225M23.9 12c-.8-1.6-2.6-2.8-4.8-2.8-.9 0-1.8.2-2.5.6.5.5 1 1.1 1.3 1.8.3.6.2 1.2-.1 1.7h5.3c.7 0 1.1-.7.8-1.3M7.201 6.2q0 .113-.011.226-.011.112-.033.223-.022.11-.055.219-.033.108-.076.213-.043.104-.097.204-.053.1-.116.193-.062.094-.134.181-.072.088-.152.168t-.167.151-.181.135-.194.116-.204.096-.212.076-.22.055q-.11.022-.222.033-.113.011-.226.011t-.225-.01-.224-.034-.219-.055-.212-.076-.204-.096-.194-.116-.181-.135-.167-.151-.152-.168-.134-.18q-.063-.095-.116-.194-.054-.1-.097-.204-.043-.105-.076-.213t-.055-.219q-.022-.11-.033-.223-.01-.113-.01-.226t.01-.225q.011-.112.033-.223t.055-.22.076-.212.097-.204.116-.193.134-.182.152-.167.167-.152.181-.134.194-.116.204-.097T4.233 4t.22-.054.223-.034.225-.01.226.01.223.034.219.054.212.076q.105.044.204.097.1.053.194.116t.181.134.167.152.152.167.134.182.116.193.097.204.076.213.055.219q.022.11.033.223.011.112.011.225M.1 12c.8-1.6 2.6-2.8 4.8-2.8.9 0 1.8.2 2.5.6-.5.5-1 1.1-1.3 1.8-.3.6-.2 1.2.1 1.7H.9c-.7 0-1.1-.7-.8-1.3"/><circle cx="8" cy="2" r="2" fill="#86909C"/><circle cx="16" cy="2" r="2" fill="#86909C"/></svg>