<svg xmlns="http://www.w3.org/2000/svg" width="19.2" height="19.2" fill="none"><defs><clipPath id="a"><rect width="19.2" height="19.2" rx="0"/></clipPath></defs><g clip-path="url(#a)"><path fill="currentColor" fill-rule="evenodd" d="M3.59 10.249A4.05 4.05 0 0 1 2.4 7.413a3.7 3.7 0 0 1 1.116-2.697A3.7 3.7 0 0 1 6.214 3.6c1.092 0 2.01.364 2.73 1.084l.634.677.68-.677c.72-.718 1.637-1.084 2.73-1.084a3.7 3.7 0 0 1 2.696 1.116A3.7 3.7 0 0 1 16.8 7.413c0 1.05-.386 1.968-1.146 2.73l-3.775 3.276-.501.456L7.15 10.25l.65-.649 3.6 3 3.604-3.106c.59-.59.877-1.272.877-2.08 0-.81-.277-1.48-.847-2.049a2.77 2.77 0 0 0-2.048-.847c-.851 0-1.533.267-2.08.815l-1.013 1.01a.46.46 0 0 1-.66-.012l-.95-1.012c-.538-.538-1.22-.805-2.07-.805-.81 0-1.478.277-2.048.847a2.77 2.77 0 0 0-.848 2.048c0 .851.373 1.639.921 2.187q.548.548 6.302 5.404l-.647.649q-5.584-4.68-6.304-5.4"/></g></svg>