<svg xmlns="http://www.w3.org/2000/svg" width="136" height="52" fill="none"><defs><linearGradient id="c" x1=".69" x2="0" y1=".332" y2="1.107"><stop offset="2.143%" stop-color="#FFF" stop-opacity=".8"/><stop offset="100%" stop-color="#FFF" stop-opacity="0"/></linearGradient><linearGradient id="d" x1=".69" x2="0" y1=".332" y2="1.107"><stop offset="2.143%" stop-color="#FFF" stop-opacity=".8"/><stop offset="100%" stop-color="#FFF" stop-opacity="0"/></linearGradient><clipPath id="a"><rect width="136" height="52" rx="0"/></clipPath><clipPath id="b"><rect width="52" height="52" rx="26"/></clipPath></defs><g clip-path="url(#a)"><g fill-rule="evenodd" clip-path="url(#b)"><path fill="url(#c)" d="M16.517 16.32q-.042.442-.116.879-.075.438-.182.868-.106.431-.245.853-.138.422-.307.832t-.368.807-.426.778-.483.744-.537.706-.587.665-.635.62-.678.57-.72.52-.755.465-.788.408-.816.348-.839.287v.025q-.4.11-.792.23-.393.119-.78.249-.386.13-.765.27-.38.14-.75.289-.371.149-.734.308t-.717.327-.7.345-.679.362-.66.38-.638.397-.617.413-.595.428-.57.443-.547.458-.52.471-.496.485-.47.497-.441.508-.414.52-.386.53-.357.539-.327.548-.298.556-.268.564-.237.57q-.11.286-.206.575-.095.29-.174.58-.08.292-.144.586-.064.293-.112.587-.047.295-.08.59-.031.296-.047.593-.016.296-.016.593 0 .294.015.587.016.294.048.588.031.293.078.585t.11.583.14.58q.08.289.173.576t.202.57.233.566q.125.282.264.56t.292.552.323.544.35.536q.184.265.38.526.197.26.408.517.21.255.435.505.224.25.461.494.238.245.488.483.25.237.513.469t.538.456.562.442.585.427.608.412.63.397.65.38.67.363.689.346.707.328.724.31.74.291.755.272q.382.132.77.253.388.122.782.233-.456-.201-.893-.422t-.854-.46q-.416-.24-.81-.496-.394-.257-.763-.53-.37-.273-.714-.562-.345-.289-.662-.592t-.607-.619-.55-.644-.49-.666-.428-.686-.365-.704-.301-.718q-.135-.362-.236-.73-.1-.366-.169-.737-.067-.371-.101-.744t-.034-.747q0-.287.02-.574.02-.286.06-.572.04-.285.1-.57.06-.283.139-.565t.178-.56.217-.554.255-.546q.138-.27.294-.536t.33-.527q.174-.26.366-.515.192-.254.402-.502t.436-.488.47-.473.502-.458q.26-.224.534-.44.274-.215.563-.421t.592-.403.62-.382.645-.362.67-.34q.34-.164.692-.317t.714-.294.734-.27q.371-.128.751-.245t.768-.22.782-.194q.395-.091.795-.169.4-.077.806-.141.405-.064.814-.115.41-.05.822-.088t.826-.06.83-.033v-4.737h.001V16.333q-.028-.004-.055-.013" transform="rotate(-30 -6.502 16.319)"/><path fill="url(#d)" d="M81.52 36.61q-.042.442-.117.88-.074.437-.181.868-.107.43-.245.853-.138.421-.307.832-.17.41-.368.807-.199.397-.427.778t-.483.745-.536.706-.587.665-.635.62-.68.571-.719.52q-.369.246-.755.464-.387.219-.788.408-.402.19-.816.349-.415.159-.84.287v.024q-.399.11-.792.23t-.78.25-.765.27-.75.288-.734.308q-.363.16-.717.327-.354.168-.699.345-.344.177-.68.363-.334.186-.659.38t-.639.397-.617.412q-.302.21-.594.429-.291.218-.57.443-.28.225-.547.458-.267.232-.521.471-.254.24-.495.484-.242.246-.47.497-.227.252-.441.509t-.414.52q-.2.262-.386.53-.186.267-.357.538-.171.272-.327.549-.157.276-.298.556-.142.28-.268.563-.126.284-.237.57-.11.287-.206.576t-.174.58q-.08.292-.144.585t-.111.588q-.048.294-.08.59t-.048.592-.016.593q0 .294.015.588.016.294.048.587.031.293.078.586.047.292.11.583.063.29.141.58.078.289.172.576t.203.571.233.566.263.559q.14.278.293.552.154.274.322.545.169.27.352.535.183.266.38.527.196.26.407.516t.435.506.462.494.488.482.513.47.538.456.562.442.586.427.608.412.63.397.65.38.67.363.69.346q.348.168.706.328t.725.31.74.291.756.272q.381.131.77.253.388.121.782.233-.457-.202-.894-.422-.437-.221-.854-.46t-.81-.496q-.395-.257-.765-.53-.37-.274-.714-.562-.345-.29-.662-.592-.318-.303-.607-.62-.29-.315-.55-.643t-.49-.667-.43-.687q-.198-.347-.365-.703t-.301-.718q-.135-.363-.236-.73t-.169-.738-.101-.745-.034-.747q0-.287.02-.573.02-.287.06-.572.04-.286.1-.57.059-.284.138-.566t.179-.56.217-.554.255-.545.293-.537.33-.527.367-.515q.192-.254.402-.502.21-.247.436-.488.227-.24.47-.473t.502-.457q.26-.225.533-.44.275-.216.564-.422t.592-.403.62-.382.645-.362.67-.34.693-.317q.351-.153.714-.294.362-.14.733-.27.372-.128.752-.245t.767-.22.783-.194q.394-.09.794-.168t.806-.142.815-.115.821-.087.827-.06.83-.034V36.623q-.028-.005-.054-.013" transform="rotate(150 58.5 36.61)"/><path fill="#FFF" d="m25.572 32.36 13.094 16.088c.016.02.049.002.04-.023L31.32 29.042a2.31 2.31 0 0 1 .297-2.188l4.805-6.23a.023.023 0 0 0-.021-.036l-7.798 1.046a2.31 2.31 0 0 1-2.043-.836L13.41 4.61c-.017-.02-.049-.002-.04.023l7.443 19.483a2.3 2.3 0 0 1-.297 2.187l-4.805 6.23c-.013.016 0 .04.02.037l7.799-1.047a2.3 2.3 0 0 1 2.043.837"/></g><path fill="#FFF" d="M92.332 31.404h4.284V11.06H78.58v20.668h4.176V15.312h9.576zm-3.6-2.016c.432-1.908.648-4.032.756-6.444.072-1.764.18-3.924.216-5.688h-4.248c0 1.728-.036 3.852-.144 6.12-.396 8.1-2.34 11.124-10.08 16.308l3.132 3.544c4.104-2.896 6.804-5.596 8.532-8.764v3.384c0 3.096 1.296 4.536 4.032 4.536H93.7c1.908 0 3.42-.54 4.716-1.62l-1.98-3.42c-1.26.972-2.268 1.152-3.6 1.152h-.828c-.864 0-1.152-.288-1.152-1.512v-7.596zm-14.076-.36c1.368-3.672 2.16-7.596 2.592-12.384v-4.32h-11.16v4.248h6.804c-.18 2.52-.54 4.824-1.08 7.02-.972-1.8-1.872-3.564-2.7-5.076l-3.348 1.764c1.224 2.412 2.736 5.436 4.284 8.532-1.152 2.664-2.664 5.184-4.608 7.74l2.052 4.608c2.052-2.556 3.672-4.968 5.004-7.38.72 1.476 1.44 2.952 2.088 4.284l3.708-2.124c-.972-1.872-2.268-4.32-3.636-6.912m56.772-4.644v-13.32h-26.496v13.32h11.52v2.484h-6.696q.324-.81.648-1.728h-4.356c-.72 2.448-2.196 5.004-4.68 7.344l3.384 2.52c1.404-1.62 2.484-3.06 3.384-4.716h8.316v2.088h-9.432v3.312h9.432v2.52H101.8v3.564h32.4v-3.564h-13.14v-2.52h10.656v-3.312H121.06v-2.088h11.736v-3.42H121.06v-2.484zm-4.536-3.348h-17.424v-1.764h17.424zm0-4.716h-17.424v-1.692h17.424z"/></g></svg>