<svg xmlns="http://www.w3.org/2000/svg" xmlns:xlink="http://www.w3.org/1999/xlink" fill="none" version="1.1" width="120" height="120" viewBox="0 0 120 120"><defs><clipPath id="master_svg0_2432_22573"><rect x="0" y="0" width="120" height="120" rx="0"/></clipPath><linearGradient x1="0.6895751953125" y1="0.33218449354171753" x2="0" y2="1.1072783470153809" id="master_svg1_2417_24050"><stop offset="7.857143133878708%" stop-color="#6871F4" stop-opacity="0.699999988079071"/><stop offset="100%" stop-color="#6871F4" stop-opacity="0"/></linearGradient><linearGradient x1="0.6895751953125" y1="0.33218449354171753" x2="0" y2="1.1072783470153809" id="master_svg2_2417_24068"><stop offset="5.714285746216774%" stop-color="#6871F4" stop-opacity="0.699999988079071"/><stop offset="98.57142567634583%" stop-color="#6871F4" stop-opacity="0"/></linearGradient></defs><g clip-path="url(#master_svg0_2432_22573)"><g><g transform="matrix(0.8660253882408142,-0.5,0.5,0.8660253882408142,-20.3395703301951,-0.17695491897302418)"><path d="M39.382911444091796,37.865742766782816Q39.3374114440918,38.34438787988281,39.2742114440918,38.821023879882816Q39.211011444091795,39.297656879882815,39.130311444091795,39.77163687988281Q39.0495114440918,40.245606879882814,38.9513114440918,40.71626687988281Q38.853111444091795,41.186936879882815,38.737511444091794,41.653646879882814Q38.6220114440918,42.12035687988281,38.489211444091794,42.58247687988281Q38.356511444091794,43.04459687988281,38.206711444091795,43.50148687988281Q38.0570114440918,43.95838687988281,37.8905114440918,44.40943687988281Q37.72401144409179,44.86047687988281,37.5409114440918,45.305066879882816Q37.357811444091794,45.74964687988281,37.1584114440918,46.187156879882814Q36.9590114440918,46.62466687988281,36.7436114440918,47.05450687988281Q36.528211444091795,47.48433687988281,36.297011444091794,47.90587687988281Q36.0658114440918,48.32747687988281,35.8192114440918,48.74027687988281Q35.5726114440918,49.152976879882814,35.31091144409179,49.55637687988281Q35.049211444091796,49.959676879882814,34.77281144409179,50.35307687988281Q34.496311444091795,50.74647687988281,34.2055114440918,51.12937687988281Q33.9147114440918,51.51227687988281,33.610011444091796,51.884176879882816Q33.3053114440918,52.25607687988281,32.9870114440918,52.616376879882814Q32.6687114440918,52.97677687988281,32.337311444091796,53.32517687988281Q32.005911444091794,53.67347687988281,31.6619114440918,54.00937687988281Q31.317811444091795,54.345176879882814,30.961611444091794,54.66817687988281Q30.605311444091797,54.99107687988281,30.237411444091798,55.30057687988281Q29.8695114440918,55.61007687988281,29.490411444091798,55.90577687988281Q29.111311444091797,56.20147687988281,28.721511444091796,56.48297687988281Q28.331711444091795,56.764476879882814,27.931711444091796,57.031376879882814Q27.531811444091794,57.29827687988281,27.1223114440918,57.55017687988281Q26.7128114440918,57.80207687988281,26.294211444091793,58.038676879882814Q25.875611444091795,58.27527687988281,25.448611444091796,58.496276879882814Q25.021611444091796,58.71727687988282,24.586711444091797,58.922276879882816Q24.1518114440918,59.127276879882814,23.7096114440918,59.316076879882814Q23.2674114440918,59.504876879882815,22.8186114440918,59.67727687988281Q22.3697114440918,59.84957687988281,21.914811444091796,60.00517687988281Q21.459911444091798,60.16077687988282,20.999511444091798,60.29947687988282L20.999511444091798,60.35327687988281Q20.134411444091796,60.59107687988281,19.2828114440918,60.85087687988281Q18.431111444091798,61.11067687988282,17.594011444091798,61.39217687988281Q16.7570114440918,61.67367687988281,15.935711444091798,61.97647687988281Q15.114411444091797,62.279276879882815,14.310011444091796,62.60297687988282Q13.505711444091798,62.92667687988281,12.719311444091797,63.27077687988282Q11.933011444091797,63.61497687988282,11.165711444091798,63.97907687988281Q10.398511444091795,64.3431768798828,9.651411444091796,64.72667687988282Q8.904411444091796,65.1102768798828,8.178511444091797,65.51277687988281Q7.452711444091797,65.91527687988281,6.749111444091795,66.33607687988281Q6.045511444091797,66.75697687988281,5.365111444091797,67.19567687988281Q4.6846114440917965,67.6342768798828,4.028411444091796,68.09007687988282Q3.3721114440917965,68.54587687988281,2.7409114440917968,69.01827687988282Q2.109711444091797,69.49067687988281,1.5044114440917973,69.97887687988282Q0.8991114440917976,70.46717687988281,0.320511444091796,70.97057687988281Q-0.25798855590820224,71.47407687988282,-0.8089185559082033,71.9920768798828Q-1.3598785559082032,72.5100768798828,-1.882498555908203,73.0418768798828Q-2.405118555908203,73.57357687988281,-2.8986785559082033,74.11847687988282Q-3.3922485559082034,74.66327687988282,-3.8560685559082035,75.22047687988281Q-4.319878555908203,75.77757687988282,-4.753318555908203,76.34627687988282Q-5.186748555908203,76.91487687988281,-5.589198555908203,77.49437687988282Q-5.991638555908203,78.07377687988281,-6.362538555908203,78.66307687988282Q-6.733438555908203,79.2524768798828,-7.072278555908204,79.8508768798828Q-7.411118555908203,80.4493768798828,-7.717428555908203,81.05617687988281Q-8.023738555908203,81.66287687988282,-8.297088555908203,82.27707687988281Q-8.570438555908202,82.89127687988281,-8.810458555908204,83.51207687988281Q-9.050478555908203,84.13297687988282,-9.256838555908203,84.75947687988281Q-9.463188555908204,85.3859768798828,-9.635588555908203,86.01737687988282Q-9.807988555908203,86.6488768798828,-9.946196555908204,87.2841768798828Q-10.084404555908202,87.91957687988281,-10.188228555908204,88.55817687988281Q-10.292052555908203,89.19667687988282,-10.361348555908203,89.83737687988281Q-10.430644455908203,90.47807687988282,-10.465316455908203,91.12017687988282Q-10.499988555908203,91.76227687988282,-10.499988555908203,92.4047768798828Q-10.499988555908203,93.04217687988282,-10.465870555908204,93.67907687988281Q-10.431752555908202,94.31597687988281,-10.363563555908204,94.95157687988282Q-10.295373555908203,95.5871768798828,-10.193205555908204,96.2206768798828Q-10.091037555908203,96.85407687988281,-9.955031555908203,97.48457687988281Q-9.819024555908204,98.11497687988282,-9.649364555908203,98.74147687988281Q-9.479708555908203,99.3679768798828,-9.276618555908204,99.98977687988281Q-9.073538555908204,100.61147687988282,-8.837318555908203,101.22767687988281Q-8.601088555908204,101.84387687988281,-8.332038555908204,102.45357687988282Q-8.062988555908204,103.0632768798828,-7.761488555908203,103.66577687988281Q-7.459978555908203,104.26817687988282,-7.126438555908203,104.86257687988281Q-6.792888555908203,105.45687687988281,-6.427748555908203,106.04237687988281Q-6.0626185559082035,106.62777687988282,-5.6663885559082035,107.20357687988282Q-5.270158555908203,107.77927687988281,-4.843388555908203,108.34457687988281Q-4.416608555908203,108.90977687988281,-3.959868555908203,109.46377687988281Q-3.5031285559082033,110.01777687988282,-3.0170385559082034,110.55977687988282Q-2.530958555908203,111.1017768798828,-2.0161885559082027,111.63097687988281Q-1.5014185559082023,112.16017687988281,-0.9586785559082038,112.67587687988281Q-0.4158885559082037,113.1916768798828,0.1540114440917968,113.69317687988281Q0.7240114440917971,114.19477687988281,1.320511444091796,114.68147687988281Q1.916911444091797,115.16807687988282,2.5390114440917966,115.63927687988281Q3.1611114440917962,116.1103768798828,3.807911444091797,116.56537687988282Q4.454811444091797,117.02037687988282,5.125611444091797,117.45857687988281Q5.796411444091795,117.89667687988282,6.490211444091798,118.31747687988282Q7.184011444091798,118.73827687988282,7.899911444091796,119.14107687988282Q8.615711444091797,119.54387687988282,9.352611444091796,119.92817687988281Q10.089511444091798,120.31247687988281,10.846511444091796,120.67777687988281Q11.603511444091797,121.04297687988281,12.379511444091797,121.38867687988281Q13.155611444091797,121.73437687988282,13.949511444091797,122.06007687988281Q14.743511444091798,122.38577687988281,15.554411444091798,122.69107687988281Q16.365311444091798,122.99627687988281,17.192011444091797,123.28067687988282Q18.018711444091796,123.5649768798828,18.860011444091796,123.82807687988281Q19.701411444091796,124.09127687988281,20.556211444091797,124.33267687988281Q20.061411444091796,124.11447687988282,19.576711444091796,123.88577687988281Q19.092011444091796,123.65697687988282,18.618011444091795,123.41777687988281Q18.143911444091795,123.17867687988281,17.680911444091798,122.92937687988281Q17.217911444091797,122.68017687988281,16.766511444091798,122.42097687988282Q16.315111444091798,122.16187687988281,15.875611444091795,121.89307687988281Q15.436211444091796,121.62427687988281,15.009111444091797,121.34617687988282Q14.582111444091797,121.06807687988281,14.167911444091796,120.78077687988281Q13.753611444091796,120.49357687988281,13.352711444091796,120.19757687988282Q12.951711444091796,119.90157687988281,12.564311444091796,119.59697687988282Q12.177011444091796,119.29247687988281,11.803711444091796,118.97967687988282Q11.430311444091796,118.6668768798828,11.071411444091797,118.34617687988282Q10.712411444091796,118.02547687988282,10.368211444091799,117.6972768798828Q10.023911444091798,117.36897687988281,9.694811444091798,117.03337687988281Q9.365611444091797,116.69787687988281,9.051811444091797,116.35537687988281Q8.738111444091796,116.01287687988281,8.440011444091798,115.66367687988281Q8.141911444091797,115.31457687988281,7.859811444091797,114.95917687988282Q7.577711444091797,114.60387687988282,7.311911444091798,114.24247687988282Q7.046111444091796,113.88117687988282,6.796811444091798,113.51437687988282Q6.547511444091796,113.14747687988282,6.314911444091798,112.77537687988281Q6.082411444091797,112.40327687988281,5.866911444091798,112.02637687988282Q5.651411444091796,111.64947687988281,5.453011444091796,111.26807687988281Q5.254711444091797,110.88667687988281,5.073811444091797,110.5011768798828Q4.892911444091796,110.11577687988282,4.7296114440917965,109.72647687988281Q4.566211444091797,109.33727687988281,4.420611444091797,108.94477687988281Q4.275011444091797,108.55217687988281,4.147311444091796,108.15667687988281Q4.019611444091797,107.76117687988281,3.9099114440917973,107.36317687988281Q3.800211444091797,106.96507687988282,3.708711444091797,106.56487687988282Q3.6171114440917975,106.16457687988282,3.5437114440917963,105.76257687988281Q3.4704114440917966,105.36057687988281,3.415311444091797,104.95717687988281Q3.3602114440917976,104.55377687988282,3.3234114440917963,104.14937687988281Q3.2867114440917966,103.74497687988281,3.268311444091797,103.33997687988281Q3.249911444091797,102.93497687988281,3.249911444091797,102.52977687988282Q3.249911444091797,101.90807687988281,3.2932114440917974,101.28707687988282Q3.3364114440917962,100.66607687988281,3.422911444091797,100.04717687988281Q3.5093114440917965,99.42837687988282,3.638711444091797,98.81307687988281Q3.768211444091797,98.19787687988281,3.9403114440917975,97.58757687988282Q4.112411444091796,96.97727687988282,4.3267114440917975,96.37347687988282Q4.541111444091797,95.7695768798828,4.797311444091797,95.1735768798828Q5.053411444091797,94.57747687988281,5.350811444091796,93.99057687988281Q5.648111444091796,93.40377687988281,5.9860114440917975,92.82737687988282Q6.323811444091795,92.25107687988282,6.7014114440917965,91.68657687988281Q7.0790114440917975,91.12207687988281,7.495511444091797,90.57077687988281Q7.911911444091796,90.0194768798828,8.366211444091796,89.48257687988281Q8.820611444091796,88.94567687988281,9.311711444091795,88.4244768798828Q9.802911444091798,87.90327687988281,10.329811444091796,87.3988768798828Q10.856711444091797,86.8945768798828,11.418111444091796,86.4082768798828Q11.979511444091798,85.9219768798828,12.574111444091798,85.45487687988282Q13.168611444091798,84.98777687988282,13.795111444091798,84.5408768798828Q14.421511444091799,84.0939768798828,15.078311444091796,83.66837687988281Q15.735111444091796,83.24277687988281,16.420711444091797,82.83947687988281Q17.106411444091798,82.43607687988282,17.819311444091795,82.05587687988282Q18.532311444091796,81.67577687988282,19.270911444091798,81.31967687988282Q20.009411444091796,80.96357687988282,20.772011444091795,80.63237687988281Q21.534511444091798,80.3011768798828,22.3192114440918,79.9955768798828Q23.1039114440918,79.6899768798828,23.9089114440918,79.4107768798828Q24.714011444091796,79.13157687988281,25.5375114440918,78.87937687988281Q26.361111444091797,78.62717687988281,27.2013114440918,78.40257687988282Q28.0414114440918,78.1779768798828,28.896211444091797,77.98147687988282Q29.751111444091798,77.7848768798828,30.618611444091798,77.61697687988281Q31.486111444091797,77.44897687988282,32.3643114440918,77.30997687988281Q33.2425114440918,77.17097687988282,34.129411444091794,77.06117687988282Q35.0163114440918,76.95137687988282,35.909811444091794,76.87117687988281Q36.8033114440918,76.7908768798828,37.7013114440918,76.7403768798828Q38.5994114440918,76.6898768798828,39.499911444091794,76.66907687988282L39.499911444091794,57.90477687988282L39.499511444091794,57.90477687988282L39.499511444091794,37.89457747988281Q39.439411444091796,37.88473697988281,39.382911444091796,37.865742766782816Z" fill-rule="evenodd" fill="url(#master_svg1_2417_24050)" fill-opacity="1"/></g><g transform="matrix(-0.8660253882408142,0.5,-0.5,-0.8660253882408142,284.16342299300334,87.52862138578894)"><path d="M180.23770063171386,81.83498239402813Q180.19220063171386,82.31362745507812,180.12910063171387,82.79026245507812Q180.06590063171387,83.26690145507813,179.98510063171386,83.74087145507812Q179.90440063171388,84.21484145507813,179.80610063171386,84.68551145507813Q179.70790063171387,85.15617145507812,179.59240063171387,85.62288145507813Q179.47680063171387,86.08959145507812,179.34410063171387,86.55171145507812Q179.21130063171387,87.01383145507812,179.06160063171387,87.47072145507812Q178.91190063171388,87.92762145507812,178.74540063171386,88.37866145507813Q178.57880063171388,88.82971145507813,178.39570063171385,89.27429145507813Q178.21270063171386,89.71887145507813,178.01330063171386,90.15638145507812Q177.81390063171386,90.59389145507812,177.59840063171387,91.02373145507812Q177.38300063171386,91.45357145507812,177.15180063171385,91.87519145507812Q176.92070063171388,92.29669145507813,176.67400063171385,92.70949145507812Q176.42740063171385,93.12219145507812,176.16570063171386,93.52559145507813Q175.90400063171387,93.92889145507813,175.62760063171388,94.32229145507813Q175.35120063171388,94.71569145507813,175.06040063171386,95.09859145507812Q174.76960063171387,95.48149145507813,174.46480063171387,95.85339145507812Q174.16010063171387,96.22529145507812,173.84180063171385,96.58559145507813Q173.52350063171386,96.94599145507813,173.19210063171386,97.29439145507813Q172.86070063171388,97.64269145507812,172.51670063171386,97.97859145507812Q172.17260063171386,98.31449145507813,171.81640063171386,98.63739145507813Q171.46020063171386,98.96029145507812,171.09230063171387,99.26979145507812Q170.72430063171387,99.57929145507812,170.34520063171385,99.87499145507812Q169.96610063171386,100.17069145507813,169.57630063171388,100.45219145507812Q169.18650063171387,100.73369145507813,168.78660063171387,101.00059145507812Q168.38670063171386,101.26749145507813,167.97710063171388,101.51939145507812Q167.56760063171387,101.77129145507813,167.14910063171385,102.00789145507812Q166.73050063171388,102.24449145507813,166.30350063171386,102.46549145507812Q165.87650063171387,102.68649145507813,165.44160063171387,102.89149145507812Q165.00670063171387,103.09649145507812,164.56450063171388,103.28529145507812Q164.12230063171387,103.47409145507812,163.67340063171386,103.64649145507812Q163.22460063171388,103.81879145507813,162.76970063171387,103.97439145507812Q162.31470063171386,104.12999145507813,161.85440063171387,104.26869145507813L161.85440063171387,104.32269145507813Q160.98930063171386,104.56049145507812,160.13760063171387,104.82029145507812Q159.28600063171388,105.08009145507813,158.44890063171385,105.36159145507813Q157.61190063171387,105.64309145507812,156.79060063171386,105.94589145507813Q155.96930063171388,106.24869145507813,155.16490063171386,106.57239145507813Q154.36060063171388,106.89609145507812,153.57420063171386,107.24019145507813Q152.78790063171385,107.58439145507813,152.02070063171388,107.94849145507813Q151.25350063171388,108.31259145507812,150.50640063171386,108.69609145507812Q149.75940063171387,109.07969145507812,149.03350063171388,109.48219145507812Q148.30770063171386,109.88469145507813,147.60410063171386,110.30559145507813Q146.90050063171387,110.72639145507813,146.22010063171388,111.16509145507813Q145.53970063171386,111.60369145507812,144.88340063171387,112.05949145507813Q144.22710063171388,112.51529145507813,143.59590063171387,112.98769145507812Q142.96470063171387,113.46009145507813,142.35940063171387,113.94829145507813Q141.75410063171387,114.43659145507812,141.17560063171388,114.94009145507812Q140.59710063171386,115.44349145507812,140.04616063171386,115.96149145507812Q139.49522063171386,116.47949145507812,138.97260063171387,117.01129145507812Q138.44999063171386,117.54299145507812,137.95643063171386,118.08789145507812Q137.46287063171386,118.63269145507812,136.99906063171386,119.18979145507812Q136.53525063171386,119.74699145507813,136.10182063171388,120.31569145507812Q135.66839063171386,120.88429145507813,135.26595063171388,121.46369145507813Q134.86351063171386,122.04309145507813,134.49262063171386,122.63249145507812Q134.12172063171386,123.22179145507812,133.78289063171385,123.82029145507812Q133.44405063171388,124.41879145507812,133.13775063171386,125.02549145507813Q132.83144063171386,125.63229145507813,132.55809063171387,126.24649145507811Q132.28474063171387,126.86069145507813,132.04473063171386,127.48149145507813Q131.80471063171387,128.10229145507813,131.59836063171386,128.72879145507812Q131.39201063171387,129.35539145507812,131.21961063171386,129.98679145507813Q131.04721363171387,130.61819145507812,130.90900763171388,131.25359145507812Q130.77080163171388,131.88899145507813,130.66697863171387,132.52749145507812Q130.56315663171387,133.16599145507814,130.49386063171386,133.80669145507812Q130.42456593171386,134.44739145507813,130.38989433171386,135.08949145507813Q130.35522270171387,135.73159145507813,130.35522270171387,136.37409145507812Q130.35522270171387,137.01139145507813,130.38934073171387,137.64839145507813Q130.42345873171388,138.28529145507812,130.49164863171387,138.92089145507813Q130.55983763171386,139.55649145507812,130.66200563171387,140.18999145507811Q130.76417363171387,140.82339145507814,130.90017963171385,141.45379145507812Q131.03618663171386,142.08429145507813,131.20584663171385,142.71079145507812Q131.37551063171387,143.33729145507812,131.57859063171387,143.95909145507812Q131.78167063171387,144.58079145507813,132.01790063171387,145.19699145507812Q132.25412063171387,145.81319145507814,132.52317063171387,146.42289145507812Q132.79222063171386,147.03259145507812,133.09372063171386,147.6350914550781Q133.39523063171387,148.23749145507813,133.72878063171387,148.8318914550781Q134.06232063171387,149.42619145507814,134.42746063171387,150.0116914550781Q134.79260063171387,150.59709145507813,135.18882063171387,151.17289145507812Q135.58505063171387,151.74859145507813,136.01182063171387,152.31389145507814Q136.43860063171385,152.87909145507814,136.89534063171388,153.4330914550781Q137.35208063171387,153.98709145507814,137.83817063171387,154.52909145507812Q138.32426063171386,155.07109145507812,138.83902063171388,155.60029145507812Q139.35379063171388,156.12949145507812,139.89653063171386,156.64519145507813Q140.43930063171388,157.16099145507812,141.00930063171387,157.6624914550781Q141.57920063171386,158.16399145507813,142.17570063171388,158.65069145507812Q142.77210063171387,159.13739145507813,143.39420063171386,159.6085914550781Q144.01630063171388,160.07969145507812,144.66320063171386,160.53469145507813Q145.31010063171388,160.98969145507812,145.98080063171386,161.42779145507814Q146.65160063171388,161.86599145507813,147.34540063171386,162.28679145507812Q148.03920063171387,162.70759145507813,148.75510063171387,163.11039145507812Q149.47090063171387,163.51319145507813,150.20780063171387,163.89749145507812Q150.94480063171386,164.28179145507812,151.70170063171386,164.6470914550781Q152.45870063171387,165.01229145507813,153.23480063171388,165.35799145507812Q154.01080063171386,165.70369145507811,154.80480063171387,166.02939145507813Q155.59880063171386,166.35509145507814,156.40970063171386,166.66039145507813Q157.22060063171386,166.96559145507814,158.04720063171388,167.24999145507815Q158.87390063171387,167.53429145507812,159.71520063171386,167.79739145507813Q160.55660063171388,168.06049145507814,161.41140063171386,168.3019914550781Q160.91660063171386,168.08379145507814,160.43190063171386,167.85509145507814Q159.94720063171386,167.62629145507813,159.47320063171387,167.38709145507812Q158.99910063171387,167.1479914550781,158.53610063171388,166.8986914550781Q158.07320063171386,166.64949145507813,157.62170063171388,166.3902914550781Q157.17030063171387,166.13119145507812,156.73080063171386,165.86239145507813Q156.29140063171386,165.59359145507813,155.86430063171386,165.31549145507813Q155.43730063171387,165.03739145507814,155.02310063171387,164.75009145507812Q154.60890063171388,164.46289145507814,154.20790063171387,164.16689145507814Q153.80690063171386,163.87079145507812,153.41960063171388,163.56629145507813Q153.03220063171386,163.2616914550781,152.65890063171386,162.94899145507813Q152.28560063171386,162.63619145507812,151.92660063171388,162.31549145507813Q151.56760063171387,161.99479145507814,151.22340063171387,161.66649145507813Q150.87920063171387,161.33829145507812,150.55000063171386,161.00269145507812Q150.22080063171387,160.66709145507812,149.90710063171386,160.32459145507812Q149.59330063171387,159.98209145507812,149.29520063171387,159.63299145507813Q148.99710063171386,159.2838914550781,148.71500063171388,158.92849145507813Q148.43290063171386,158.57309145507813,148.16710063171388,158.21179145507813Q147.90130063171387,157.85049145507813,147.65200063171386,157.4835914550781Q147.40270063171386,157.11679145507813,147.17020063171387,156.7446914550781Q146.93760063171388,156.37259145507812,146.72210063171386,155.99569145507814Q146.50660063171387,155.6187914550781,146.30830063171388,155.23739145507813Q146.10990063171386,154.85599145507814,145.92900063171388,154.4704914550781Q145.74810063171387,154.08499145507812,145.58480063171388,153.6957914550781Q145.42150063171385,153.30659145507812,145.27590063171385,152.9140914550781Q145.13030063171388,152.52149145507812,145.00260063171388,152.12599145507812Q144.87490063171387,151.73049145507812,144.76520063171387,151.33249145507813Q144.65550063171386,150.93439145507813,144.56390063171386,150.53419145507814Q144.47230063171386,150.13389145507813,144.39890063171387,149.73189145507814Q144.32560063171385,149.32989145507813,144.27050063171387,148.92649145507812Q144.21540063171386,148.5229914550781,144.17860063171386,148.11859145507813Q144.14190063171387,147.71419145507812,144.12350063171385,147.30929145507812Q144.10510063171387,146.90429145507812,144.10510063171387,146.4989914550781Q144.10510063171387,145.87729145507814,144.14840063171386,145.25629145507813Q144.19160063171387,144.63539145507812,144.27810063171387,144.01649145507812Q144.36450063171387,143.39769145507813,144.49400063171387,142.78239145507814Q144.62340063171388,142.16719145507813,144.79550063171388,141.55689145507813Q144.96760063171388,140.94659145507813,145.18200063171386,140.34279145507813Q145.39630063171387,139.73889145507812,145.65250063171388,139.14289145507811Q145.90860063171385,138.5467914550781,146.20600063171386,137.95989145507812Q146.50340063171387,137.37299145507814,146.84120063171386,136.79669145507813Q147.17910063171388,136.22039145507813,147.55670063171385,135.65589145507812Q147.93420063171388,135.0913914550781,148.35070063171386,134.54009145507814Q148.76710063171387,133.98869145507814,149.22140063171386,133.4518914550781Q149.67580063171386,132.9149914550781,150.16700063171388,132.39379145507812Q150.65810063171386,131.87259145507812,151.18500063171388,131.36819145507812Q151.71190063171386,130.86389145507812,152.27330063171388,130.37759145507812Q152.83470063171387,129.89129145507812,153.42930063171386,129.42419145507813Q154.02390063171387,128.9570914550781,154.65030063171386,128.51019145507811Q155.27670063171388,128.06329145507812,155.93350063171386,127.63769145507813Q156.59030063171386,127.21209145507812,157.27590063171385,126.80869145507813Q157.96160063171388,126.40539145507813,158.67450063171387,126.02519145507813Q159.38750063171386,125.64509145507813,160.12610063171388,125.28899145507813Q160.86470063171387,124.93289145507813,161.62720063171386,124.60169145507813Q162.38970063171388,124.27039145507813,163.17440063171387,123.96489145507812Q163.95910063171385,123.65929145507812,164.76410063171386,123.38009145507812Q165.56920063171387,123.10089145507813,166.39270063171386,122.84869145507813Q167.21630063171386,122.59649145507812,168.05650063171387,122.37189145507813Q168.89660063171385,122.14729145507812,169.75150063171387,121.95069145507813Q170.60630063171385,121.75419145507811,171.47380063171386,121.58629145507813Q172.34130063171386,121.41829145507813,173.21950063171386,121.27929145507812Q174.09780063171388,121.14019145507812,174.98460063171387,121.03049145507813Q175.87150063171387,120.92069145507813,176.76500063171386,120.84049145507812Q177.65850063171388,120.76019145507811,178.55650063171387,120.70969145507812Q179.45460063171387,120.65919145507812,180.35510063171387,120.63839145507814L180.35510063171387,101.87409145507813L180.35440063171387,101.87409145507813L180.35440063171387,81.86384145507813Q180.29430063171387,81.85399045507812,180.23770063171386,81.83498239402813Z" fill-rule="evenodd" fill="url(#master_svg2_2417_24068)" fill-opacity="1"/></g><g transform="matrix(0.8660253882408142,-0.5,0.5,0.8660253882408142,-11.294755743911082,8.347397521138191)"><path d="M28.7369771484375,90.8144L35.8796771484375,135.19299999999998C35.8887771484375,135.249,35.9693771484375,135.249,35.9784771484375,135.19299999999998L43.1211771484375,90.8144C43.3910771484375,89.1378,44.4933771484375,87.7128,46.0483771484375,87.0304L61.8165771484375,80.5462C61.8579771484375,80.5293,61.8579771484375,80.4707,61.8165771484375,80.4538L46.0483771484375,73.9696C44.4933771484375,73.2872,43.3910771484375,71.8622,43.1211771484375,70.1856L35.9784771484375,25.558468C35.969477148437505,25.502337,35.888677148437495,25.502337,35.8796771484375,25.558468L28.7369771484375,70.1856C28.4670771484375,71.8622,27.3647771484375,73.2872,25.809777148437497,73.9696L10.0415311484375,80.4538C10.0002190484375,80.4707,10.0002190484375,80.5293,10.0415311484375,80.5462L25.809777148437497,87.0304C27.3647771484375,87.7128,28.4670771484375,89.1378,28.7369771484375,90.8144Z" fill-rule="evenodd" fill="#6871F4" fill-opacity="1"/></g></g></g></svg>